<svg width="70" height="70" fill="none" xmlns="http://www.w3.org/2000/svg"><path fill="#E5E5E5" d="M0 0h70v70H0z"/><g clip-path="url(#clip0)"><path fill="#fff" d="M-315-799h1600v3018H-315z"/><rect x="-100" y="-25" width="270" height="120" rx="4" fill="#F5F4FA"/><path d="M67 48L49 30l2-10h2a5 5 0 10-5-3l-11 1L20 0h-2l-3 4v1l1 2a33 33 0 006 39v15H8c-3 0-6 2-6 6v2l2 1h53l1-1v-2c0-4-2-6-5-6H39v-6a33 33 0 0022-4l1 2 1 1 1-1 3-3v-2zM51 14a2 2 0 112 4 2 2 0 01-2-4zm-3 7l-1 7-3-3 4-4zm-1-2l-4 5-4-4 8-1zm6 44c1 0 3 2 3 4v1H5v-1c0-2 1-4 3-4h45zm-17-5v3H25v-3h11zm-11-2v-9c0-3 2-5 5-5 4 0 6 2 6 5v9H25zm14-4v-5c0-4-4-7-9-7-3 0-5 1-7 4-9-10-11-24-5-35l41 41c-6 3-14 4-20 2zm24-1l-1-2L19 6l-2-2 2-1 17 17 29 29-2 2z" fill="#212121"/><path d="M30 44a3 3 0 100 7 3 3 0 100-7zm1 5a1 1 0 11-1-2 1 1 0 011 2z" fill="#2196F3"/></g><defs><clipPath id="clip0"><path fill="#fff" d="M-315-799h1600v3018H-315z"/></clipPath></defs></svg>