<svg width="44" height="44" viewBox="0 0 44 44" fill="none" xmlns="http://www.w3.org/2000/svg">
<rect width="44" height="44" fill="#E5E5E5"/>
<g clip-path="url(#clip0)">
<rect x="-344" y="-2139" width="1600" height="2924" fill="white"/>
<rect x="-344" y="-540" width="1600" height="702" fill="#F5F4FA"/>
<g filter="url(#filter0_ddd)">
<rect x="-144" y="-354" width="278" height="422" rx="4" fill="white"/>
</g>
<g clip-path="url(#clip1)">
<path d="M25.3308 15.3208H27.1566V12.1408C26.8416 12.0975 25.7583 12 24.4966 12C21.8641 12 20.0608 13.6558 20.0608 16.6992V19.5H17.1558V23.055H20.0608V32H23.6224V23.0558H26.4099L26.8524 19.5008H23.6216V17.0517C23.6224 16.0242 23.8991 15.3208 25.3308 15.3208Z" fill="#AFB1B8"/>
</g>
</g>
<defs>
<filter id="filter0_ddd" x="-147" y="-356" width="284" height="428" filterUnits="userSpaceOnUse" color-interpolation-filters="sRGB">
<feFlood flood-opacity="0" result="BackgroundImageFix"/>
<feColorMatrix in="SourceAlpha" type="matrix" values="0 0 0 0 0 0 0 0 0 0 0 0 0 0 0 0 0 0 127 0"/>
<feOffset dy="2"/>
<feGaussianBlur stdDeviation="0.5"/>
<feColorMatrix type="matrix" values="0 0 0 0 0 0 0 0 0 0 0 0 0 0 0 0 0 0 0.2 0"/>
<feBlend mode="normal" in2="BackgroundImageFix" result="effect1_dropShadow"/>
<feColorMatrix in="SourceAlpha" type="matrix" values="0 0 0 0 0 0 0 0 0 0 0 0 0 0 0 0 0 0 127 0"/>
<feOffset dy="1"/>
<feGaussianBlur stdDeviation="0.5"/>
<feColorMatrix type="matrix" values="0 0 0 0 0 0 0 0 0 0 0 0 0 0 0 0 0 0 0.14 0"/>
<feBlend mode="normal" in2="effect1_dropShadow" result="effect2_dropShadow"/>
<feColorMatrix in="SourceAlpha" type="matrix" values="0 0 0 0 0 0 0 0 0 0 0 0 0 0 0 0 0 0 127 0"/>
<feOffset dy="1"/>
<feGaussianBlur stdDeviation="1.5"/>
<feColorMatrix type="matrix" values="0 0 0 0 0 0 0 0 0 0 0 0 0 0 0 0 0 0 0.12 0"/>
<feBlend mode="normal" in2="effect2_dropShadow" result="effect3_dropShadow"/>
<feBlend mode="normal" in="SourceGraphic" in2="effect3_dropShadow" result="shape"/>
</filter>
<clipPath id="clip0">
<rect x="-344" y="-2139" width="1600" height="2924" fill="white"/>
</clipPath>
<clipPath id="clip1">
<rect x="12" y="12" width="20" height="20" fill="white"/>
</clipPath>
</defs>
</svg>
